Coordinates
version=1
nRows=7
nColumns=33
inDegrees=yes

Units are S.I. units (second, meters, Newtons, ...)
Angles are in degrees.

endheader
time	ground_thorax_rot_x	ground_thorax_rot_y	ground_thorax_rot_z	ground_thorax_tx	ground_thorax_ty	ground_thorax_tz	clav_prot_r	clav_elev_r	scapula_abduction_r	scapula_elevation_r	scapula_upward_rot_r	scapula_winging_r	shoulder_elv_r	plane_of_elev_r	axial_rot_r	elbow_flexion_r	pro_sup_r	wrist_flex_r	wrist_dev_r	clav_prot_l	clav_elev_l	scapula_abduction_l	scapula_elevation_l	scapula_upward_rot_l	scapula_winging_l	shoulder_elv_l	plane_of_elev_l	axial_rot_l	elbow_flexion_l	pro_sup_l	wrist_flex_l	wrist_dev_l
      2.10000000	     37.90005590	      9.83771301	     13.36489793	    -97.72781243	    774.89357260	      8.84015314	     11.58887789	     39.21616494	     45.00000000	     38.01307944	     -9.84462951	  -5493.11111288	  -2101.85436172	     28.60254509	     60.77000557	   2890.26775219	     22.27599532	     18.14822774	     11.34486008	      6.11948347	    -45.00000000	    -43.45589884	     45.00000000	    -33.71641721	    806.21230811	  -2256.91267147	    134.25564542	   -179.99999979	   -352.57555152	     38.45489496	      8.92126651	    -20.38811696
      2.11000000	     37.97393716	      9.81902997	     13.27353040	    -99.39432931	    775.62987220	      8.78987759	     11.57099219	     39.30104805	     45.00000000	     38.22510459	     -9.84885117	  -5493.19452945	  -2101.76644641	     28.62574119	     60.79232581	   2890.34572683	     22.17209011	     18.20294307	     11.31653743	      6.11190664	    -45.00000000	    -43.35861053	     45.00000000	    -33.84000924	    806.36049088	  -2256.76740878	    134.20776933	   -179.99999979	   -352.42787030	     38.30410348	      8.87070477	    -20.43808954
      2.12000000	     38.21848729	     10.49821027	     14.32391603	   -101.11573620	    776.40390448	      8.73178702	     12.83771575	     40.55375994	     45.00000000	     39.13522325	    -12.44489652	  -5492.69613832	  -2101.68804600	     29.06594548	     59.83167123	   2890.39480562	     21.70980764	     18.19350237	     11.20672535	      6.54035694	    -45.00000000	    -42.07828057	     45.00000000	    -36.38174497	    805.90544252	  -2256.30693424	    134.14394488	   -179.99999979	   -352.31833312	     37.98232641	      8.82897090	    -20.39641629
      2.13000000	     38.20721159	     10.26775817	     14.10251626	   -102.88036561	    777.21381330	      8.66623123	     12.15002638	     39.59360515	     45.00000000	     39.07116080	    -11.66472268	  -5492.84321971	  -2101.52072602	     28.88078194	     59.90354840	   2890.47489213	     21.66727728	     18.28466739	     11.34312345	      5.75436159	    -45.00000000	    -42.14792079	     45.00000000	    -35.88509228	    806.38097982	  -2256.32345105	    134.11412834	   -179.99999979	   -352.16101032	     37.88889959	      8.74552744	    -20.49808059
      2.14000000	     38.28625607	     10.38828301	     14.15623064	   -104.69943040	    778.05883647	      8.59168682	     12.29667667	     40.51880578	     45.00000000	     39.38834717	    -11.97794167	  -5492.89743684	  -2101.45064927	     28.88631072	     59.93268244	   2890.56653137	     21.53900562	     18.30802455	     11.20963966	      6.11888319	    -45.00000000	    -42.06376460	     45.00000000	    -35.97992088	    806.35804701	  -2256.31237723	    134.30844649	   -179.99999979	   -352.17585212	     37.83729708	      8.68473527	    -20.46690112
      2.15000000	     38.35674374	     10.22881701	     13.83267993	   -106.56124553	    778.93679596	      8.50799298	     12.19670300	     39.69209153	     45.00000000	     39.49094825	    -11.66680043	  -5493.03638506	  -2101.34468704	     28.91533451	     59.88141089	   2890.56486740	     21.44151770	     18.38816641	     11.27749986	      5.83246671	    -45.00000000	    -42.03236933	     45.00000000	    -36.09991158	    806.69942036	  -2255.96947115	    133.94052982	   -179.99999979	   -351.92153133	     37.78511389	      8.66086005	    -20.60628175
      2.16000000	     38.48135616	     10.26772847	     13.92054399	   -108.47678897	    779.85292116	      8.41377834	     12.25624919	     40.49864459	     45.00000000	     39.83451913	    -11.98867386	  -5493.07155658	  -2101.27855592	     29.03138879	     59.82680626	   2890.67197412	     21.29296241	     18.40914596	     11.15430903	      5.95995393	    -45.00000000	    -41.82597220	     45.00000000	    -36.28759536	    806.74429768	  -2255.92721766	    134.12667154	   -179.99999979	   -351.84268511	     37.73995465	      8.59661897	    -20.61188645
